<?xml version="1.0" standalone="no"?><!DOCTYPE svg PUBLIC "-//W3C//DTD SVG 1.1//EN" "http://www.w3.org/Graphics/SVG/1.1/DTD/svg11.dtd"><svg width="203.3203125" height="200" viewBox="0 0 203.3203125 200" version="1.1" xmlns="http://www.w3.org/2000/svg" xmlns:xlink="http://www.w3.org/1999/xlink"><defs><style type="text/css"><![CDATA[
@font-face { font-family: ifont; src: url("//at.alicdn.com/t/font_1442373896_4754455.eot?#iefix") format("embedded-opentype"), url("//at.alicdn.com/t/font_1442373896_4754455.woff") format("woff"), url("//at.alicdn.com/t/font_1442373896_4754455.ttf") format("truetype"), url("//at.alicdn.com/t/font_1442373896_4754455.svg#ifont") format("svg"); }

]]></style></defs><g class="transform-group"><g transform="scale(0.1953125, 0.1953125)"><path d="M285.49356 949.752691c-53.453141 0-90.770148-34.879595-92.879447-86.809354-1.728453-43.234761 23.495242-89.059273 68.722119-90.887331 20.003181-0.949184 40.146983 6.468516 53.634775 19.428983 10.49376 10.083619 16.270895 22.891749 16.270895 36.074865 0 8.126659-6.603276 14.718217-14.718217 14.718217-8.126659 0-14.718217-6.591558-14.718217-14.718217 0-6.532966-3.925639-11.68317-7.218488-14.852977-7.722376-7.4177-20.038336-11.700748-32.078916-11.249592-26.459979 1.078086-41.623492 32.149226-40.498532 60.308361 1.464791 36.127597 25.780316 58.56819 63.478168 58.56819 39.355996 0 57.724471-15.515063 78.975654-33.473396 22.569495-19.053997 48.121303-40.65673 98.826497-40.65673 8.126659 0 14.718217 6.591558 14.718217 14.718217s-6.591558 14.718217-14.718217 14.718217c-39.924334 0-58.421711 15.608809-79.84281 33.701904C361.029885 928.284719 335.612838 949.752691 285.49356 949.752691zM754.507813 949.752691c-50.125137 0-75.542184-21.467972-97.971059-40.416504-21.397662-18.093094-39.895039-33.701904-79.807655-33.701904-8.126659 0-14.718217-6.591558-14.718217-14.718217s6.591558-14.718217 14.718217-14.718217c50.681757 0 76.262861 21.596874 98.80306 40.65673 21.251183 17.952474 39.619658 33.473396 78.975654 33.473396 37.721289 0 62.036814-22.440593 63.46645-58.556472 1.1191-28.176713-14.020976-59.247853-40.439941-60.32008-12.087453-0.386705-24.385835 3.84947-32.11993 11.261311-3.304568 3.169807-7.218488 8.320011-7.218488 14.841259 0 8.126659-6.603276 14.718217-14.718217 14.718217-8.126659 0-14.718217-6.591558-14.718217-14.718217 0-13.171398 5.777134-25.979527 16.247458-36.063146 13.50537-12.966327 33.619875-20.301999 53.716803-19.440702 45.180003 1.833918 70.380262 47.65257 68.663527 90.887331C845.313116 914.873095 808.007827 949.752691 754.507813 949.752691zM409.643358 729.038033c-58.820134 0-106.689493-47.857641-106.689493-106.689493 0-58.820134 47.869359-106.666056 106.689493-106.666056 58.808416 0 106.677775 47.845922 106.677775 106.666056C516.321132 681.180392 468.451773 729.038033 409.643358 729.038033zM409.643358 545.113058c-42.601972 0-77.258919 34.63937-77.258919 77.235482 0 42.601972 34.651088 77.270637 77.258919 77.270637s77.247201-34.662806 77.247201-77.270637C486.890558 579.752427 452.251189 545.113058 409.643358 545.113058zM519.994827 471.539552c-89.328794 0-222.290772-28.288037-303.153076-90.395162-6.456797-4.945133-7.669644-14.179174-2.712792-20.624253 4.933415-6.456797 14.179174-7.657926 20.624253-2.712792 72.085278 55.339791 198.045557 84.295773 285.247475 84.295773 87.26051 0 213.273521-28.961841 285.323644-84.31921 6.421642-4.956852 15.679119-3.755723 20.630112 2.701074 4.956852 6.445079 3.755723 15.679119-2.701074 20.630112C742.402783 443.239797 609.382213 471.539552 519.994827 471.539552zM703.943239 416.340381c-5.402148 0-10.599225-2.964736-13.171398-8.126659-35.910808-71.833334-8.525082-204.385171 28.516545-304.541698L320.712987 103.672024c37.029908 100.156527 64.427353 232.708364 28.516545 304.541698-3.63854 7.253643-12.450721 10.230098-19.739519 6.57984-7.27708-3.63854-10.21838-12.474157-6.591558-19.751237 31.674633-63.331689 2.882708-200.231025-37.281852-300.616059-1.810481-4.529133-1.271438-9.667618 1.488227-13.710441 2.736229-4.048681 7.288798-6.468516 12.17534-6.468516l441.441034 0c4.886542 0 9.427393 2.413975 12.17534 6.468516 2.747947 4.036963 3.298709 9.175449 1.488227 13.710441-40.16456 100.385034-68.962345 237.28437-37.29357 300.616059 3.63854 7.27708 0.685522 16.112697-6.57984 19.751237C708.402062 415.848211 706.158003 416.340381 703.943239 416.340381zM233.411463 706.972426c-8.11494 0-14.718217-6.591558-14.718217-14.718217l0-73.573506c0-8.126659 6.603276-14.718217 14.718217-14.718217l73.573506 0c8.126659 0 14.718217 6.591558 14.718217 14.718217s-6.591558 14.718217-14.718217 14.718217L248.12968 633.398921l0 58.855289C248.12968 700.380868 241.538122 706.972426 233.411463 706.972426z" fill="#FFF"></path></g></g></svg>